<svg xmlns="http://www.w3.org/2000/svg" width="50" height="50" viewBox="0 0 50 50">
    <path fill="#389DFF" fill-rule="nonzero" d="M44.408 19.474c-2.697 0-4.934 1.908-5.395 4.473h-6.776c-.198-1.315-.658-2.5-1.448-3.486l5.79-5.79a4.14 4.14 0 0 0 2.171.592c1.118 0 2.171-.46 2.96-1.184.79-.79 1.185-1.842 1.185-2.96 0-1.119-.46-2.172-1.184-2.961-.79-.79-1.843-1.184-2.961-1.184-1.118 0-2.171.46-2.96 1.184-.79.79-1.185 1.842-1.185 2.96 0 .79.198 1.514.592 2.171l-5.79 5.79a7.872 7.872 0 0 0-3.486-1.447v-6.777c2.566-.46 4.474-2.697 4.474-5.394A5.447 5.447 0 0 0 24.935 0a5.447 5.447 0 0 0-5.461 5.46c0 2.698 1.908 4.935 4.473 5.395v6.842c-1.315.198-2.5.658-3.486 1.448l-5.79-5.79a4.095 4.095 0 0 0-.592-5.066c-1.645-1.644-4.276-1.644-5.855 0-1.645 1.645-1.645 4.277 0 5.856.79.79 1.842 1.184 2.96 1.184.724 0 1.513-.197 2.171-.592l5.79 5.79a7.872 7.872 0 0 0-1.448 3.486h-6.842c-.46-2.566-2.697-4.474-5.394-4.474A5.447 5.447 0 0 0 0 25a5.447 5.447 0 0 0 5.46 5.46c2.698 0 4.935-1.907 5.395-4.473h6.842c.198 1.316.658 2.5 1.448 3.487l-5.79 5.79a4.14 4.14 0 0 0-2.17-.593c-1.12 0-2.172.46-2.961 1.184-.79.79-1.185 1.842-1.185 2.96 0 1.12.461 2.172 1.185 2.961.79.79 1.842 1.185 2.96 1.185 1.119 0 2.171-.461 2.96-1.185.79-.723 1.185-1.842 1.185-2.96a4.14 4.14 0 0 0-.592-2.171l5.79-5.79a7.872 7.872 0 0 0 3.486 1.448v6.842c-2.566.46-4.474 2.697-4.474 5.394A5.447 5.447 0 0 0 25 50a5.447 5.447 0 0 0 5.46-5.46c0-2.698-1.907-4.935-4.473-5.395v-6.908c1.316-.198 2.5-.658 3.487-1.448l5.79 5.79a4.14 4.14 0 0 0-.593 2.171c0 1.118.46 2.171 1.184 2.96.79.79 1.842 1.185 2.96 1.185 1.12 0 2.172-.46 2.961-1.184.79-.79 1.185-1.843 1.185-2.961 0-1.118-.461-2.171-1.185-2.96-.79-.79-1.842-1.185-2.96-1.185a4.14 4.14 0 0 0-2.171.592l-5.79-5.79a7.872 7.872 0 0 0 1.448-3.486h6.842c.46 2.566 2.697 4.474 5.394 4.474A5.447 5.447 0 0 0 50 24.935c0-3.027-2.566-5.461-5.592-5.461zM24.934 30.329c-2.96 0-5.395-2.434-5.395-5.395 0-2.96 2.435-5.395 5.395-5.395 2.96 0 5.395 2.435 5.395 5.395 0 2.96-2.434 5.395-5.395 5.395zM37.171 9.605c.395-.394.987-.658 1.513-.658.592 0 1.119.198 1.513.658.395.395.658.987.658 1.513 0 .527-.197 1.119-.658 1.514a2.184 2.184 0 0 1-3.092 0c-.394-.395-.658-.987-.658-1.514 0-.526.33-1.118.724-1.513zM21.447 5.461c0-1.908 1.58-3.487 3.487-3.487 1.908 0 3.487 1.579 3.487 3.487 0 1.907-1.579 3.486-3.487 3.486-1.908 0-3.487-1.579-3.487-3.486zM9.605 12.697a2.184 2.184 0 0 1 0-3.092 2.184 2.184 0 0 1 3.092 0 2.184 2.184 0 0 1 0 3.092 2.184 2.184 0 0 1-3.092 0zM5.461 28.421c-1.908 0-3.487-1.579-3.487-3.487 0-1.908 1.579-3.487 3.487-3.487 1.907 0 3.486 1.58 3.486 3.487 0 1.908-1.579 3.487-3.486 3.487zm7.236 11.842a2.184 2.184 0 0 1-3.092 0c-.394-.395-.658-.987-.658-1.513 0-.592.198-1.118.658-1.513.395-.395.987-.658 1.513-.658.527 0 1.119.197 1.514.658.394.395.657.987.657 1.513.066.526-.197 1.118-.592 1.513zm15.724 4.145c0 1.908-1.579 3.487-3.487 3.487-1.908 0-3.487-1.58-3.487-3.487 0-1.908 1.58-3.487 3.487-3.487 1.908 0 3.487 1.579 3.487 3.487zm11.842-7.237c.395.395.658.987.658 1.513 0 .592-.197 1.119-.658 1.513a2.184 2.184 0 0 1-3.092 0c-.395-.394-.658-.986-.658-1.513 0-.592.198-1.118.658-1.513.46-.395.987-.658 1.513-.658.592 0 1.184.263 1.58.658zm4.145-8.75c-1.908 0-3.487-1.579-3.487-3.487 0-1.908 1.579-3.487 3.487-3.487 1.908 0 3.487 1.58 3.487 3.487 0 1.908-1.58 3.487-3.487 3.487z"/>
</svg>
