<?xml version="1.0" standalone="no"?>
<!DOCTYPE svg PUBLIC "-//W3C//DTD SVG 20010904//EN"
 "http://www.w3.org/TR/2001/REC-SVG-20010904/DTD/svg10.dtd">
<svg version="1.0" xmlns="http://www.w3.org/2000/svg"
 width="427.000000pt" height="427.000000pt" viewBox="0 0 427.000000 427.000000"
 preserveAspectRatio="xMidYMid meet">
<metadata>
Created by potrace 1.11, written by Peter Selinger 2001-2013
</metadata>
<g transform="translate(0.000000,427.000000) scale(0.100000,-0.100000)"
fill="#000000" stroke="none">
<path d="M2440 4189 c-19 -6 -50 -13 -67 -16 -18 -3 -33 -9 -33 -14 0 -5 -11
-9 -25 -9 -14 0 -25 -4 -25 -10 0 -5 -4 -10 -10 -10 -9 0 -72 -39 -97 -60 -7
-5 -15 -10 -18 -10 -7 0 -145 -138 -145 -145 0 -3 -10 -17 -22 -30 -38 -40
-48 -54 -48 -65 0 -5 -4 -10 -10 -10 -5 0 -10 -9 -10 -20 0 -11 -4 -20 -10
-20 -5 0 -10 -5 -10 -11 0 -6 -11 -25 -25 -43 -14 -18 -25 -40 -25 -49 0 -10
-4 -17 -10 -17 -5 0 -10 -7 -10 -15 0 -8 -4 -23 -9 -33 -5 -9 -17 -37 -26 -62
-9 -25 -21 -53 -26 -62 -5 -10 -9 -29 -9 -43 0 -14 -4 -25 -10 -25 -5 0 -10
-22 -10 -49 0 -28 -4 -52 -9 -55 -5 -3 -12 -79 -15 -168 -11 -262 -25 -427
-39 -450 -20 -37 -103 -118 -120 -118 -8 0 -17 -4 -19 -9 -5 -12 -85 -61 -101
-61 -8 0 -24 8 -35 19 -19 16 -22 29 -22 101 0 82 0 82 37 116 20 19 40 34 43
34 18 0 70 63 70 84 0 10 -48 56 -59 56 -18 0 -51 -33 -51 -52 0 -10 -4 -18
-10 -18 -5 0 -10 -9 -10 -20 0 -11 -4 -20 -10 -20 -5 0 -10 -7 -10 -15 0 -8
-7 -15 -15 -15 -8 0 -15 -4 -15 -10 0 -25 -54 -8 -91 29 -37 37 -39 41 -39
105 0 99 -45 136 -105 84 -24 -21 -35 -68 -15 -68 6 0 10 -7 10 -15 0 -8 5
-15 10 -15 6 0 10 -9 10 -20 0 -11 5 -20 10 -20 17 0 12 -77 -6 -84 -38 -15
-94 14 -94 48 0 9 -4 16 -10 16 -5 0 -10 8 -10 18 0 10 -14 26 -30 35 -32 19
-34 18 -68 -24 -14 -19 -6 -49 14 -49 8 0 14 -4 14 -10 0 -5 11 -12 25 -16 14
-3 25 -10 25 -15 0 -5 7 -9 16 -9 15 0 64 -47 64 -61 0 -3 -11 -15 -25 -27
-19 -17 -40 -22 -97 -24 -71 -3 -73 -4 -76 -31 -2 -15 3 -34 12 -42 16 -17 76
-21 76 -5 0 6 7 10 15 10 8 0 15 4 15 8 0 13 68 42 98 42 49 0 58 -15 29 -44
-14 -14 -33 -26 -41 -26 -8 0 -17 -4 -20 -9 -3 -4 -19 -11 -35 -14 -32 -7 -47
-34 -36 -67 10 -33 67 -27 96 10 13 16 32 30 42 30 9 0 17 5 17 10 0 6 9 10
20 10 25 0 25 -16 0 -75 -11 -26 -20 -55 -20 -66 0 -10 -4 -19 -10 -19 -5 0
-10 -22 -10 -50 0 -27 -4 -50 -10 -50 -5 0 -10 -16 -10 -35 0 -19 5 -35 10
-35 6 0 10 -14 10 -31 0 -56 19 -63 149 -62 70 1 117 6 119 12 2 6 17 11 33
11 16 0 29 5 29 10 0 6 11 10 25 10 14 0 25 5 25 10 0 6 5 10 10 10 6 0 33 11
62 25 61 29 72 22 63 -40 -3 -22 -9 -76 -14 -120 -8 -82 -27 -167 -42 -197 -5
-10 -9 -29 -9 -43 0 -14 -4 -25 -10 -25 -5 0 -10 -9 -10 -19 0 -11 -3 -21 -7
-23 -5 -1 -21 -29 -37 -61 -16 -31 -32 -57 -37 -57 -5 0 -9 -7 -9 -16 0 -9
-16 -31 -35 -50 -19 -18 -35 -35 -35 -39 0 -3 -10 -16 -22 -29 -13 -13 -32
-34 -44 -47 -12 -13 -34 -33 -49 -44 -16 -11 -34 -26 -41 -32 -25 -25 -44 -15
-44 22 0 19 5 35 10 35 6 0 10 43 10 110 0 67 -4 110 -10 110 -5 0 -10 7 -10
15 0 8 -7 15 -15 15 -8 0 -15 5 -15 10 0 6 -22 10 -50 10 -27 0 -50 -4 -50
-10 0 -5 -9 -10 -19 -10 -22 0 -81 -31 -81 -42 0 -5 -9 -8 -20 -8 -11 0 -20
-4 -20 -10 0 -5 -7 -10 -15 -10 -8 0 -15 -4 -15 -8 0 -12 -86 -34 -108 -28
-10 4 -24 19 -31 34 -43 91 -44 92 -73 92 -25 0 -28 -3 -28 -33 0 -21 7 -38
20 -47 11 -8 20 -20 20 -27 0 -7 4 -13 9 -13 13 0 21 -27 15 -45 -7 -17 -44
-21 -44 -5 0 6 -5 10 -10 10 -6 0 -22 11 -36 25 -29 29 -46 31 -85 8 -33 -20
-38 -52 -12 -83 21 -24 42 -25 69 -5 25 19 94 20 94 1 0 -8 5 -16 12 -18 8 -3
3 -14 -14 -31 -21 -20 -37 -27 -68 -27 -31 0 -40 -4 -42 -17 -3 -34 3 -57 15
-65 17 -11 57 -10 57 2 0 6 9 10 20 10 13 0 20 7 20 19 0 21 40 36 71 26 18
-6 28 -45 12 -45 -13 0 -33 -52 -33 -82 0 -23 4 -28 24 -28 36 0 48 22 40 75
-5 38 -3 48 12 60 35 27 55 17 84 -40 9 -17 25 -31 38 -33 19 -3 22 1 22 30 0
29 -5 37 -35 51 -22 11 -35 24 -35 36 0 28 32 80 53 87 9 3 17 10 17 15 0 5
11 9 25 9 14 0 25 5 25 10 0 6 9 10 20 10 22 0 24 -11 21 -105 -2 -33 -7 -64
-12 -69 -5 -6 -9 -18 -9 -28 0 -10 -4 -18 -9 -18 -5 0 -11 -12 -14 -27 -3 -16
-10 -46 -16 -68 -6 -22 -11 -61 -11 -87 0 -69 -21 -151 -45 -171 -53 -47 -66
-57 -75 -57 -6 0 -10 -4 -10 -10 0 -5 -11 -10 -25 -10 -14 0 -25 -4 -25 -8 0
-5 -19 -16 -42 -27 -64 -28 -158 -135 -158 -180 0 -8 -4 -15 -10 -15 -5 0 -10
-9 -10 -19 0 -10 -7 -21 -15 -25 -19 -7 -19 -40 0 -60 24 -23 19 -46 -10 -46
-21 0 -25 5 -26 33 -1 30 -1 31 -9 7 -15 -46 -11 -102 8 -116 13 -10 18 -33
23 -116 6 -109 22 -165 51 -174 10 -3 18 -10 18 -15 0 -11 114 -12 138 0 23
11 81 32 109 38 13 3 23 9 23 14 0 13 64 11 78 -3 9 -9 12 -9 12 0 0 7 14 12
35 12 19 0 35 5 35 10 0 6 -9 10 -20 10 -24 0 -28 35 -4 44 22 9 24 8 24 -9 0
-9 9 -15 25 -15 16 0 25 6 25 15 0 8 5 15 10 15 6 0 10 15 10 34 0 19 4 36 8
38 15 6 62 75 62 91 0 10 5 17 10 17 6 0 10 9 10 20 0 11 4 20 9 20 8 0 12 19
31 168 9 69 12 76 52 113 53 49 89 50 203 11 l80 -28 3 -42 c2 -25 -1 -42 -7
-42 -6 0 -11 -11 -11 -25 0 -14 -4 -25 -10 -25 -5 0 -10 -9 -10 -20 0 -11 -6
-20 -14 -20 -8 0 -17 -6 -19 -12 -4 -10 -6 -10 -6 0 -1 6 -6 12 -12 12 -6 0
-17 6 -24 13 -37 32 -46 37 -73 37 -40 0 -57 -22 -40 -49 10 -17 23 -21 61
-21 59 0 77 -16 77 -66 0 -55 -36 -80 -109 -76 -18 0 -41 -22 -41 -41 0 -7 12
-19 26 -26 28 -12 39 -7 75 31 9 10 23 18 32 18 9 0 19 5 22 10 3 6 15 10 26
10 33 0 24 -48 -16 -86 -31 -29 -34 -36 -23 -53 14 -24 45 -33 68 -21 11 6 15
18 12 43 -2 19 1 38 7 41 6 4 11 18 11 32 0 18 5 24 20 24 24 0 70 -42 70 -64
0 -8 5 -27 12 -41 14 -32 58 -36 58 -5 0 11 -4 20 -10 20 -5 0 -10 9 -10 20 0
11 -4 20 -10 20 -5 0 -10 7 -10 15 0 8 -4 15 -9 15 -5 0 -13 10 -17 23 -4 12
-11 25 -17 29 -7 4 -6 12 2 22 10 12 33 16 92 16 77 0 79 0 79 25 0 19 -7 26
-27 31 -16 3 -32 7 -38 8 -5 2 -20 -1 -33 -5 -30 -12 -62 5 -62 32 0 22 29 81
43 87 4 2 7 15 7 28 0 13 5 24 10 24 6 0 10 27 10 61 0 55 -3 64 -31 90 -17
16 -37 29 -45 29 -8 0 -14 5 -14 10 0 6 -9 10 -20 10 -11 0 -20 5 -20 10 0 6
-7 10 -15 10 -26 0 -17 37 10 44 14 4 25 11 25 16 0 6 9 10 20 10 11 0 20 5
20 10 0 6 5 10 11 10 6 0 16 6 24 13 7 6 25 21 41 32 15 11 33 26 40 33 7 6
17 12 23 12 14 0 181 167 181 180 0 6 13 24 30 41 16 17 32 40 35 50 4 11 11
19 16 19 5 0 9 7 9 15 0 8 5 15 10 15 6 0 10 9 10 19 0 11 3 21 8 23 10 4 42
67 42 84 0 8 5 14 10 14 6 0 10 14 10 30 0 17 5 30 10 30 6 0 10 14 10 31 0
17 5 39 10 49 15 28 27 223 20 320 -8 102 -3 118 28 90 11 -11 26 -20 32 -20
5 0 10 -4 10 -10 0 -5 9 -10 20 -10 11 0 20 -4 20 -10 0 -5 25 -10 55 -10 30
0 55 5 55 10 0 6 7 10 16 10 19 0 83 63 109 108 11 17 23 32 27 32 4 0 8 9 8
20 0 11 5 20 10 20 6 0 10 6 10 13 0 6 13 26 28 42 29 33 99 55 173 55 54 0
69 -17 69 -79 0 -28 3 -51 8 -51 4 0 12 -10 17 -22 7 -17 20 -24 46 -26 33 -3
38 0 47 27 11 30 -3 91 -20 91 -4 0 -8 7 -8 16 0 9 -9 25 -21 35 -28 24 -31
77 -4 93 11 6 24 17 28 24 10 14 85 16 122 2 27 -10 62 1 77 24 9 13 10 59 2
80 -8 21 -80 22 -100 1 -8 -8 -32 -20 -54 -26 -32 -10 -41 -9 -54 4 -9 9 -16
18 -16 22 0 4 -7 14 -16 23 -19 18 -14 90 8 103 38 24 48 36 48 57 0 27 -21
52 -45 52 -9 0 -27 -11 -40 -25 -20 -19 -25 -35 -25 -71 0 -36 -5 -51 -22 -66
-27 -23 -50 -20 -63 10 -5 12 -13 22 -17 22 -5 0 -8 14 -8 30 0 17 5 30 10 30
16 0 11 60 -6 77 -12 12 -22 14 -42 7 -22 -8 -28 -16 -30 -49 -2 -30 3 -46 18
-62 30 -33 35 -74 12 -101 -11 -12 -26 -22 -35 -22 -8 0 -17 -5 -19 -11 -7
-21 -88 26 -88 51 0 18 -42 49 -66 50 -37 0 -42 -63 -8 -97 7 -7 30 -13 51
-13 21 0 44 -4 52 -9 30 -19 10 -151 -23 -151 -6 0 -42 -16 -79 -35 -65 -33
-137 -47 -137 -26 0 5 -9 13 -20 16 -11 3 -20 15 -20 26 0 10 -4 19 -10 19 -5
0 -10 9 -10 19 0 11 -4 22 -9 26 -5 3 -12 19 -16 35 -4 17 -11 30 -16 30 -5 0
-9 9 -9 20 0 11 -4 20 -10 20 -5 0 -10 7 -10 15 0 8 -4 15 -10 15 -5 0 -10 6
-10 13 0 7 -16 30 -35 50 -54 58 -73 98 -81 176 -3 39 -11 74 -15 77 -5 3 -9
30 -9 60 0 30 -4 54 -10 54 -6 0 -10 60 -10 159 0 96 4 162 10 166 6 3 10 26
10 50 0 24 5 47 10 50 6 3 10 16 10 28 0 26 32 121 43 125 4 2 7 15 7 28 0 13
5 24 10 24 6 0 10 9 10 20 0 20 47 102 63 108 4 2 7 12 7 23 0 10 5 19 10 19
6 0 10 4 10 9 0 12 97 111 109 111 5 0 11 4 13 8 6 15 100 62 124 62 13 0 24
5 24 10 0 6 45 10 115 10 70 0 115 -4 115 -10 0 -5 11 -10 25 -10 14 0 25 -4
25 -10 0 -5 9 -10 20 -10 11 0 20 -5 20 -11 0 -12 25 -39 37 -39 4 0 17 -12
28 -27 11 -14 26 -32 33 -39 6 -7 12 -20 12 -28 0 -9 3 -16 8 -16 10 0 42 -58
42 -76 0 -8 5 -14 10 -14 6 0 10 -9 10 -20 0 -11 5 -20 10 -20 6 0 10 -6 10
-14 0 -17 32 -80 43 -84 4 -2 7 -12 7 -23 0 -10 5 -19 10 -19 6 0 10 -11 10
-25 0 -14 5 -25 10 -25 6 0 10 -9 10 -20 0 -11 3 -20 8 -20 4 0 16 -16 26 -35
11 -19 23 -35 28 -35 4 0 8 -9 8 -20 0 -11 5 -20 10 -20 6 0 10 -5 10 -10 0
-11 10 -25 48 -65 12 -13 22 -27 22 -30 0 -11 117 -121 145 -135 17 -8 35 -19
42 -25 7 -5 19 -16 27 -22 8 -7 20 -13 26 -13 5 0 10 -4 10 -10 0 -5 9 -10 20
-10 11 0 20 -4 20 -8 0 -4 12 -13 28 -19 36 -15 86 -46 90 -55 2 -5 12 -8 23
-8 10 0 19 -4 19 -8 0 -4 15 -16 33 -27 17 -10 39 -27 48 -37 9 -10 19 -18 23
-18 6 0 23 -14 67 -56 32 -30 79 -103 79 -121 0 -13 5 -23 10 -23 6 0 10 -37
10 -90 0 -53 -4 -90 -10 -90 -5 0 -10 -16 -10 -35 0 -19 5 -35 10 -35 6 0 10
14 10 30 0 17 3 30 8 30 4 0 13 27 19 60 11 61 -1 190 -19 190 -4 0 -8 10 -8
23 0 12 -9 29 -20 37 -11 8 -20 19 -20 25 0 13 -75 95 -87 95 -5 0 -26 16 -46
35 -20 19 -40 35 -45 35 -4 0 -18 10 -32 23 -14 13 -40 30 -57 38 -18 7 -33
16 -33 19 0 3 -16 14 -35 24 -19 11 -35 23 -35 28 0 4 -8 8 -18 8 -10 0 -24 9
-32 20 -8 11 -19 20 -25 20 -6 0 -33 20 -58 45 -26 25 -52 45 -57 45 -6 0 -10
6 -10 13 0 7 -9 19 -20 27 -11 8 -20 22 -20 32 0 10 -3 18 -8 18 -4 0 -16 16
-26 35 -11 19 -23 35 -28 35 -4 0 -8 11 -8 25 0 14 -4 25 -10 25 -5 0 -10 7
-10 15 0 18 -32 89 -42 93 -5 2 -8 17 -8 33 0 16 -4 29 -10 29 -5 0 -10 11
-10 25 0 14 -4 25 -10 25 -5 0 -10 6 -10 14 0 18 -32 76 -42 76 -5 0 -8 11 -8
25 0 14 -4 25 -10 25 -5 0 -10 9 -10 20 0 11 -4 20 -10 20 -5 0 -10 6 -10 14
0 18 -32 76 -42 76 -5 0 -8 7 -8 15 0 8 -4 15 -10 15 -5 0 -10 6 -10 14 0 7
-16 27 -35 43 -19 17 -35 33 -35 37 0 11 -22 29 -55 46 -16 8 -35 20 -42 25
-46 37 -78 55 -103 55 -11 0 -20 5 -20 10 0 6 -11 10 -24 10 -13 0 -26 5 -28
11 -5 15 -252 22 -298 8z m-1725 -3625 c21 -21 25 -34 23 -67 l-3 -42 -47 -3
c-38 -2 -48 0 -48 12 0 9 -4 16 -10 16 -5 0 -10 9 -10 20 0 11 -4 20 -10 20
-5 0 -10 16 -10 35 0 35 0 35 45 35 34 0 50 -6 70 -26z m-75 -124 c0 -5 11
-10 25 -10 28 0 34 -15 9 -24 -35 -13 -54 -7 -54 19 0 14 5 25 10 25 6 0 10
-4 10 -10z m461 -102 c24 -27 27 -108 4 -108 -22 0 -95 24 -95 31 0 8 -36 49
-44 49 -3 0 -6 -9 -6 -20 0 -11 5 -20 10 -20 17 0 11 -37 -6 -44 -21 -8 -22
-6 -30 31 -4 20 -1 35 10 46 9 8 16 25 16 36 0 19 6 21 61 21 51 0 65 -4 80
-22z"/>
<path d="M4030 2340 c0 -19 3 -21 12 -12 9 9 9 15 0 24 -9 9 -12 7 -12 -12z"/>
</g>
</svg>
