<?xml version="1.0" encoding="UTF-8" standalone="no"?>
<!DOCTYPE svg PUBLIC "-//W3C//DTD SVG 1.1//EN" "http://www.w3.org/Graphics/SVG/1.1/DTD/svg11.dtd">
<!-- Created with Vectornator (http://vectornator.io/) -->
<svg height="100%" stroke-miterlimit="10" style="fill-rule:nonzero;clip-rule:evenodd;stroke-linecap:round;stroke-linejoin:round;" version="1.1" viewBox="0 0 42 51" width="100%" xml:space="preserve" xmlns="http://www.w3.org/2000/svg" xmlns:vectornator="http://vectornator.io" xmlns:xlink="http://www.w3.org/1999/xlink">
<defs/>
<g id="Layer-1" vectornator:layerName="Layer 1">
<path d="M34.3922 7.27659C34.3922 6.83832 34.9088 6.48304 35.5461 6.48304C36.1834 6.48304 36.7 6.83832 36.7 7.27659C36.7 7.71486 36.1834 8.07014 35.5461 8.07014C34.9088 8.07014 34.3922 7.71486 34.3922 7.27659Z" fill="#000000" fill-rule="nonzero" opacity="1" stroke="none"/>
<path d="M35.1824 14.9289C35.1824 14.4907 35.699 14.1354 36.3363 14.1354C36.9735 14.1354 37.4902 14.4907 37.4902 14.9289C37.4902 15.3672 36.9735 15.7225 36.3363 15.7225C35.699 15.7225 35.1824 15.3672 35.1824 14.9289Z" fill="#000000" fill-rule="nonzero" opacity="1" stroke="none"/>
<path d="M28.3446 0.57031C28.2108 0.584969 28.0609 0.624887 27.9069 0.676192C27.2913 0.881413 27.8274 2.18281 27.974 3.15028C28.1206 4.11776 27.7276 4.2725 27.2222 4.86203C26.7169 5.45157 25.1075 5.5907 23.5411 7.06789C21.3482 9.13598 23.4691 9.29817 23.834 9.85963C24.199 10.4211 22.7288 10.755 20.7917 11.1761C18.8547 11.5972 17.0155 11.995 14.6012 13.8478C12.1869 15.7006 11.8836 18.5842 11.8836 18.5842C11.8836 18.5843 11.681 17.0435 10.8459 17.0101C9.31804 16.949 9.11931 17.5668 8.83066 18.076C8.2222 19.1495 8.34424 20.6642 9.13066 22.883C9.91709 25.1019 9.95758 25.8372 9.17301 25.7418C8.58485 25.6703 8.05491 23.7602 7.52127 23.4513C6.98762 23.1423 5.99353 23.9715 7.27774 24.8771C8.10691 25.4619 8.23257 26.3364 7.92361 26.6453C7.61466 26.9543 6.52153 25.4949 5.67893 25.523C4.83633 25.5511 4.99147 26.2866 5.22717 26.7018C5.49369 27.1714 7.52832 26.9617 7.52832 27.383C7.52832 28.1694 6.48345 28.1005 5.78128 28.2971C5.07912 28.4937 4.946 28.5187 5.10717 29.1018C5.40493 30.1791 6.7169 29.0612 7.44715 28.7241C8.1774 28.3871 7.41918 29.5673 6.80127 30.1571C6.18336 30.7469 6.89247 31.3115 7.42244 30.8912C8.19049 30.282 7.88085 29.5567 8.47067 28.8265C9.06048 28.0963 9.90715 29.1248 10.7648 28.0747C11.8421 26.7557 10.2001 22.3148 10.2001 22.3148C10.2001 22.3148 10.683 22.0892 10.9589 23.0736C11.3183 24.3563 11.3986 25.6589 11.7918 29.3383C12.185 33.0176 12.4734 36.9378 11.4777 37.6252C9.98136 38.6583 9.86304 38.3851 7.53185 35.9135C5.20066 33.4419 1.82902 34.7237 0.762509 37.9641C-0.54543 41.9379 2.70154 44.7052 4.30247 47.3734C5.90341 50.0416 2.6719 50.7157 2.6719 50.7157C2.6719 50.7157 4.47833 50.5436 4.98717 49.5475C5.89696 47.7665 4.10435 45.912 3.34601 44.5358C2.58768 43.1595 2.09706 41.6185 1.99073 40.3958C1.8844 39.1731 2.28256 37.659 4.24953 37.1805C6.21651 36.7021 7.22667 39.3579 8.05067 40.2617C8.87467 41.1654 10.5253 41.3792 12.5189 40.8476C14.1403 40.4223 15.1224 37.1271 15.3882 35.1335C15.6541 33.1399 15.6 27.6053 15.6 27.6053C15.6 27.6053 15.8645 27.6089 16.2388 27.6089C16.6131 27.6089 16.9955 27.3655 17.4529 26.9912C17.9104 26.6169 18.1376 26.2853 18.1376 26.2853C18.1376 26.2853 17.8667 27.1888 17.7212 28.1453C17.5756 29.1019 18.5738 29.1018 19.0729 29.1018C19.572 29.1018 19.6739 29.2067 20.1106 29.5394C20.5472 29.8721 19.4245 30.5173 18.967 30.9124C18.5096 31.3075 18.9052 31.8899 19.3835 32.0771C19.8618 32.2642 19.9301 31.5613 20.0964 30.9582C20.2628 30.3552 20.2668 30.1423 20.7035 29.9135C21.1402 29.6848 21.2317 30.5614 21.3564 31.2477C21.4812 31.9339 22.1097 31.9445 22.3976 31.6324C22.6444 31.3647 22.2527 30.9317 21.8576 30.6406C21.4625 30.3495 21.3806 29.8283 21.547 29.4124C21.7134 28.9965 22.713 29.2773 23.1705 29.61C23.628 29.9427 23.9387 29.8072 24.0635 29.2041C24.1882 28.6011 23.3116 28.6766 22.7293 28.7806C22.1471 28.8846 21.5251 28.7063 21.4835 28.3112C21.4419 27.9161 21.9106 27.7085 22.4929 27.563C22.6074 27.5343 23.2114 27.2028 23.287 27.1571C23.5958 26.9707 23.7952 26.7237 23.294 26.423C22.6702 26.0487 22.3578 26.6517 21.9211 27.1924C21.4844 27.7331 20.3622 28.0874 19.8423 27.8171C19.3225 27.5468 19.4473 26.8384 20.4247 25.8195C21.402 24.8006 21.1305 24.0265 21.1305 24.0265C21.1305 24.0265 20.8077 23.1095 19.0023 23.1971C17.8496 23.2531 16.1824 23.6171 16.1824 23.6171C16.1824 23.6171 18.3117 22.3155 19.9447 20.7054C21.5776 19.0953 22.9588 17.649 22.9588 17.649C22.9588 17.649 22.4601 18.7069 22.2105 19.6219C21.961 20.5368 22.6848 21.0398 23.9117 21.1854C25.1386 21.331 26.442 20.7365 27.374 21.2207C28.1386 21.6179 27.7017 22.514 27.2858 23.3666C26.8699 24.2191 27.4733 24.4284 28.0764 24.5948C28.6794 24.7611 28.451 23.9489 28.2846 23.1795C28.1182 22.4101 28.2891 22.0091 28.6693 22.0325C29.0495 22.0558 29.4892 22.0759 29.7387 23.0948C29.9882 24.1137 30.4369 24.0886 30.921 23.7618C31.6402 23.2764 30.7358 22.7828 30.2575 22.5124C29.7792 22.2421 29.2408 21.7034 29.8022 21.0795C30.3637 20.4557 31.5316 20.8466 32.301 20.8466C33.0704 20.8466 33.3165 20.2222 32.8798 19.6607C32.4432 19.0993 31.9792 19.5374 31.454 19.7313C30.8108 19.9687 30.2805 20.1832 29.8022 19.8089C29.3239 19.4346 29.6003 18.8467 30.3281 17.9525C31.0559 17.0583 30.7409 16.782 30.1587 16.6572C29.5765 16.5324 29.464 17.6565 29.2622 18.436C29.0605 19.2156 27.5491 19.8858 26.3611 19.3466C25.4514 18.9337 25.3302 18.5018 25.8917 17.8572C26.4531 17.2126 28.0344 15.2919 30.3634 14.9384C32.6924 14.5849 35.3328 15.7749 35.3328 15.7749C35.3328 15.7749 34.7696 15.427 34.881 14.9455C35.0942 14.0243 36.0065 13.6004 36.9104 13.8972C37.8583 14.2086 37.828 15.3196 37.828 15.3196C37.828 15.3196 39.431 13.9882 40.4292 13.1772C41.4273 12.3663 41.515 11.9432 41.6539 11.0984C41.8159 10.1125 40.8751 9.48236 39.9809 8.73376C39.0868 7.98516 36.9563 6.81378 36.9563 6.81378C36.9563 6.81378 37.435 8.32763 35.4598 8.37729C34.1883 8.40926 33.9951 7.06789 33.9951 7.06789C33.9951 7.06789 33.0544 7.81566 32.4387 8.27847C31.9355 8.65666 30.998 9.37129 30.2257 9.53493C29.405 9.70885 28.8123 9.62721 27.9034 9.42199C26.9946 9.21677 25.7646 8.78352 25.9446 8.00318C26.0987 7.33493 27.1955 6.45101 28.0164 5.95261C28.8372 5.45422 29.1376 6.53721 29.1669 7.24083C29.1963 7.94445 29.577 8.12289 30.134 8.03494C30.691 7.94699 30.7228 7.56356 30.1657 6.94789C29.6087 6.33223 29.2565 5.97751 29.3152 5.3032C29.3738 4.62891 30.5704 4.59038 31.8104 4.69615C32.8236 4.78257 32.938 4.55273 32.8375 3.95851C32.7369 3.36429 31.4696 3.89746 31.1999 3.97969C30.3963 4.22462 29.9007 4.31248 29.4316 3.90204C28.9626 3.4916 30.5161 2.61104 31.161 2.11265C31.806 1.61425 31.1755 0.884454 30.4869 0.909131C29.8073 0.933483 29.6368 2.31881 29.0505 3.1397C28.4641 3.96058 28.7592 2.28738 28.9058 1.37854C29.0157 0.696907 28.7459 0.526334 28.3446 0.57031ZM29.7246 11.9914C29.7246 11.9914 26.5228 12.6298 24.3776 13.3184C22.6235 13.8815 21.7684 14.3274 20.2058 15.1749C17.2418 16.7825 16.9367 17.4908 15.5788 19.7701C14.0957 22.2596 14.22 24.5797 14.22 26.243C14.22 27.6984 14.2426 31.5115 13.8565 34.1135C13.8013 34.4852 13.7391 34.8322 13.6659 35.1441C13.6659 35.1441 13.7577 33.3881 13.7577 32.6488C13.7577 31.9096 13.4811 30.0935 13.3271 28.7383C13.1731 27.383 12.8929 26.5442 12.9989 24.2136C13.1065 21.8457 13.4619 19.1811 16.98 16.0149C20.4981 12.8486 29.7246 11.9914 29.7246 11.9914Z" fill="#000000" fill-rule="nonzero" opacity="1" stroke="none"/>
<path d="M34.3922 7.27659C34.3922 6.83832 34.9088 6.48304 35.5461 6.48304C36.1834 6.48304 36.7 6.83832 36.7 7.27659C36.7 7.71486 36.1834 8.07014 35.5461 8.07014C34.9088 8.07014 34.3922 7.71486 34.3922 7.27659Z" fill="#000000" fill-rule="nonzero" opacity="1" stroke="none"/>
<path d="M35.1824 14.9289C35.1824 14.4907 35.699 14.1354 36.3363 14.1354C36.9735 14.1354 37.4902 14.4907 37.4902 14.9289C37.4902 15.3672 36.9735 15.7225 36.3363 15.7225C35.699 15.7225 35.1824 15.3672 35.1824 14.9289Z" fill="#000000" fill-rule="nonzero" opacity="1" stroke="none"/>
<path d="M28.3446 0.57031C28.2108 0.584969 28.0609 0.624887 27.9069 0.676192C27.2913 0.881413 27.8274 2.18281 27.974 3.15028C28.1206 4.11776 27.7276 4.2725 27.2222 4.86203C26.7169 5.45157 25.1075 5.5907 23.5411 7.06789C21.3482 9.13598 23.4691 9.29817 23.834 9.85963C24.199 10.4211 22.7288 10.755 20.7917 11.1761C18.8547 11.5972 17.0155 11.995 14.6012 13.8478C12.1869 15.7006 11.8836 18.5842 11.8836 18.5842C11.8836 18.5843 11.681 17.0435 10.8459 17.0101C9.31804 16.949 9.11931 17.5668 8.83066 18.076C8.2222 19.1495 8.34424 20.6642 9.13066 22.883C9.91709 25.1019 9.95758 25.8372 9.17301 25.7418C8.58485 25.6703 8.05491 23.7602 7.52127 23.4513C6.98762 23.1423 5.99353 23.9715 7.27774 24.8771C8.10691 25.4619 8.23257 26.3364 7.92361 26.6453C7.61466 26.9543 6.52153 25.4949 5.67893 25.523C4.83633 25.5511 4.99147 26.2866 5.22717 26.7018C5.49369 27.1714 7.52832 26.9617 7.52832 27.383C7.52832 28.1694 6.48345 28.1005 5.78128 28.2971C5.07912 28.4937 4.946 28.5187 5.10717 29.1018C5.40493 30.1791 6.7169 29.0612 7.44715 28.7241C8.1774 28.3871 7.41918 29.5673 6.80127 30.1571C6.18336 30.7469 6.89247 31.3115 7.42244 30.8912C8.19049 30.282 7.88085 29.5567 8.47067 28.8265C9.06048 28.0963 9.90715 29.1248 10.7648 28.0747C11.8421 26.7557 10.2001 22.3148 10.2001 22.3148C10.2001 22.3148 10.683 22.0892 10.9589 23.0736C11.3183 24.3563 11.3986 25.6589 11.7918 29.3383C12.185 33.0176 12.4734 36.9378 11.4777 37.6252C9.98136 38.6583 9.86304 38.3851 7.53185 35.9135C5.20066 33.4419 1.82902 34.7237 0.762509 37.9641C-0.54543 41.9379 2.70154 44.7052 4.30247 47.3734C5.90341 50.0416 2.6719 50.7157 2.6719 50.7157C2.6719 50.7157 4.47833 50.5436 4.98717 49.5475C5.89696 47.7665 4.10435 45.912 3.34601 44.5358C2.58768 43.1595 2.09706 41.6185 1.99073 40.3958C1.8844 39.1731 2.28256 37.659 4.24953 37.1805C6.21651 36.7021 7.22667 39.3579 8.05067 40.2617C8.87467 41.1654 10.5253 41.3792 12.5189 40.8476C14.1403 40.4223 15.1224 37.1271 15.3882 35.1335C15.6541 33.1399 15.6 27.6053 15.6 27.6053C15.6 27.6053 15.8645 27.6089 16.2388 27.6089C16.6131 27.6089 16.9955 27.3655 17.4529 26.9912C17.9104 26.6169 18.1376 26.2853 18.1376 26.2853C18.1376 26.2853 17.8667 27.1888 17.7212 28.1453C17.5756 29.1019 18.5738 29.1018 19.0729 29.1018C19.572 29.1018 19.6739 29.2067 20.1106 29.5394C20.5472 29.8721 19.4245 30.5173 18.967 30.9124C18.5096 31.3075 18.9052 31.8899 19.3835 32.0771C19.8618 32.2642 19.9301 31.5613 20.0964 30.9582C20.2628 30.3552 20.2668 30.1423 20.7035 29.9135C21.1402 29.6848 21.2317 30.5614 21.3564 31.2477C21.4812 31.9339 22.1097 31.9445 22.3976 31.6324C22.6444 31.3647 22.2527 30.9317 21.8576 30.6406C21.4625 30.3495 21.3806 29.8283 21.547 29.4124C21.7134 28.9965 22.713 29.2773 23.1705 29.61C23.628 29.9427 23.9387 29.8072 24.0635 29.2041C24.1882 28.6011 23.3116 28.6766 22.7293 28.7806C22.1471 28.8846 21.5251 28.7063 21.4835 28.3112C21.4419 27.9161 21.9106 27.7085 22.4929 27.563C22.6074 27.5343 23.2114 27.2028 23.287 27.1571C23.5958 26.9707 23.7952 26.7237 23.294 26.423C22.6702 26.0487 22.3578 26.6517 21.9211 27.1924C21.4844 27.7331 20.3622 28.0874 19.8423 27.8171C19.3225 27.5468 19.4473 26.8384 20.4247 25.8195C21.402 24.8006 21.1305 24.0265 21.1305 24.0265C21.1305 24.0265 20.8077 23.1095 19.0023 23.1971C17.8496 23.2531 16.1824 23.6171 16.1824 23.6171C16.1824 23.6171 18.3117 22.3155 19.9447 20.7054C21.5776 19.0953 22.9588 17.649 22.9588 17.649C22.9588 17.649 22.4601 18.7069 22.2105 19.6219C21.961 20.5368 22.6848 21.0398 23.9117 21.1854C25.1386 21.331 26.442 20.7365 27.374 21.2207C28.1386 21.6179 27.7017 22.514 27.2858 23.3666C26.8699 24.2191 27.4733 24.4284 28.0764 24.5948C28.6794 24.7611 28.451 23.9489 28.2846 23.1795C28.1182 22.4101 28.2891 22.0091 28.6693 22.0325C29.0495 22.0558 29.4892 22.0759 29.7387 23.0948C29.9882 24.1137 30.4369 24.0886 30.921 23.7618C31.6402 23.2764 30.7358 22.7828 30.2575 22.5124C29.7792 22.2421 29.2408 21.7034 29.8022 21.0795C30.3637 20.4557 31.5316 20.8466 32.301 20.8466C33.0704 20.8466 33.3165 20.2222 32.8798 19.6607C32.4432 19.0993 31.9792 19.5374 31.454 19.7313C30.8108 19.9687 30.2805 20.1832 29.8022 19.8089C29.3239 19.4346 29.6003 18.8467 30.3281 17.9525C31.0559 17.0583 30.7409 16.782 30.1587 16.6572C29.5765 16.5324 29.464 17.6565 29.2622 18.436C29.0605 19.2156 27.5491 19.8858 26.3611 19.3466C25.4514 18.9337 25.3302 18.5018 25.8917 17.8572C26.4531 17.2126 28.0344 15.2919 30.3634 14.9384C32.6924 14.5849 35.3328 15.7749 35.3328 15.7749C35.3328 15.7749 34.7696 15.427 34.881 14.9455C35.0942 14.0243 36.0065 13.6004 36.9104 13.8972C37.8583 14.2086 37.828 15.3196 37.828 15.3196C37.828 15.3196 39.431 13.9882 40.4292 13.1772C41.4273 12.3663 41.515 11.9432 41.6539 11.0984C41.8159 10.1125 40.8751 9.48236 39.9809 8.73376C39.0868 7.98516 36.9563 6.81378 36.9563 6.81378C36.9563 6.81378 37.435 8.32763 35.4598 8.37729C34.1883 8.40926 33.9951 7.06789 33.9951 7.06789C33.9951 7.06789 33.0544 7.81566 32.4387 8.27847C31.9355 8.65666 30.998 9.37129 30.2257 9.53493C29.405 9.70885 28.8123 9.62721 27.9034 9.42199C26.9946 9.21677 25.7646 8.78352 25.9446 8.00318C26.0987 7.33493 27.1955 6.45101 28.0164 5.95261C28.8372 5.45422 29.1376 6.53721 29.1669 7.24083C29.1963 7.94445 29.577 8.12289 30.134 8.03494C30.691 7.94699 30.7228 7.56356 30.1657 6.94789C29.6087 6.33223 29.2565 5.97751 29.3152 5.3032C29.3738 4.62891 30.5704 4.59038 31.8104 4.69615C32.8236 4.78257 32.938 4.55273 32.8375 3.95851C32.7369 3.36429 31.4696 3.89746 31.1999 3.97969C30.3963 4.22462 29.9007 4.31248 29.4316 3.90204C28.9626 3.4916 30.5161 2.61104 31.161 2.11265C31.806 1.61425 31.1755 0.884454 30.4869 0.909131C29.8073 0.933483 29.6368 2.31881 29.0505 3.1397C28.4641 3.96058 28.7592 2.28738 28.9058 1.37854C29.0157 0.696907 28.7459 0.526334 28.3446 0.57031ZM29.7246 11.9914C29.7246 11.9914 26.5228 12.6298 24.3776 13.3184C22.6235 13.8815 21.7684 14.3274 20.2058 15.1749C17.2418 16.7825 16.9367 17.4908 15.5788 19.7701C14.0957 22.2596 14.22 24.5797 14.22 26.243C14.22 27.6984 14.2426 31.5115 13.8565 34.1135C13.8013 34.4852 13.7391 34.8322 13.6659 35.1441C13.6659 35.1441 13.7577 33.3881 13.7577 32.6488C13.7577 31.9096 13.4811 30.0935 13.3271 28.7383C13.1731 27.383 12.8929 26.5442 12.9989 24.2136C13.1065 21.8457 13.4619 19.1811 16.98 16.0149C20.4981 12.8486 29.7246 11.9914 29.7246 11.9914Z" fill="#000000" fill-rule="nonzero" opacity="1" stroke="none"/>
</g>
</svg>
